# xmcd CD database file
#
# Track frame offsets:
#	150
#	16180
#	32097
#
# Disc length: 703 seconds
#
# Revision: 2
# Processed by: cddbd v1.5PL3 Copyright (c) Steve Scherf et al.
# Submitted via: CDex 1.51
#
DISCID=1702bd03
DTITLE=Eat No Fish - Holy Silence
DYEAR=1999
DGENRE=Alt Rock
TTITLE0=Holy Silence
TTITLE1=Lost in Time (Rough Version)
TTITLE2=Believe Me (Demo Version)
EXTD=YEAR: 1999
EXTT0=
EXTT1=
EXTT2=
PLAYORDER=
